<svg width="36" height="34" viewBox="0 0 36 34" fill="none" xmlns="http://www.w3.org/2000/svg">
<path fill-rule="evenodd" clip-rule="evenodd" d="M13.1367 2.07807C14.0344 1.57751 15.0884 1.25 16.0999 1.25H19.9165C20.9207 1.25 21.9708 1.57816 22.8658 2.07847C23.7575 2.57696 24.5679 3.28728 25.0371 4.12272L25.0399 4.12768L26.2362 6.296C26.5604 6.8538 27.2337 7.25 27.9999 7.25C31.9652 7.25 35.2684 10.2825 34.9979 14.0389L34.1314 26.4273C34.014 28.1007 33.4523 29.7032 32.2219 30.8868C30.9865 32.0751 29.1719 32.75 26.7332 32.75H9.26652C6.82804 32.75 5.00956 32.0752 3.77212 30.8873C2.53946 29.7039 1.97704 28.1012 1.86821 26.4254C1.86817 26.4248 1.86813 26.4241 1.86809 26.4234L1.00179 14.0389C1.00177 14.0386 1.00181 14.0391 1.00179 14.0389C0.731794 10.2829 4.03482 7.25 7.99985 7.25C8.76601 7.25 9.43927 6.85382 9.76351 6.29604L10.9626 4.12271C11.4319 3.28713 12.2425 2.57668 13.1367 2.07807ZM12.2718 4.85494L11.0665 7.03947C10.4562 8.09882 9.26454 8.75 7.99985 8.75C4.73183 8.75 2.30177 11.2075 2.49792 13.9311L2.49803 13.9327L3.36496 26.3266C3.45645 27.7401 3.91907 28.949 4.81092 29.8052C5.69848 30.6573 7.105 31.25 9.26652 31.25H26.7332C28.8945 31.25 30.2966 30.6574 31.182 29.8057C32.0724 28.9493 32.5357 27.7392 32.635 26.3227C32.635 26.3226 32.635 26.3227 32.635 26.3227L33.5017 13.9327L33.5018 13.9311C33.6979 11.2075 31.2679 8.75 27.9999 8.75C26.7352 8.75 25.5436 8.09876 24.9333 7.03941L24.9264 7.02737L23.7293 4.85728C23.7288 4.85651 23.7284 4.85573 23.728 4.85496C23.4302 4.32616 22.8578 3.79245 22.1339 3.38778C21.4122 2.98434 20.6123 2.75 19.9165 2.75H16.0999C15.3946 2.75 14.5903 2.98499 13.8672 3.38818C13.1417 3.79272 12.5695 4.32629 12.2718 4.85494Z" fill="#EA5734"/>
<path d="M1.00179 14.0389L1.86809 26.4234C1.86813 26.4241 1.86817 26.4248 1.86821 26.4254C1.97704 28.1012 2.53946 29.7039 3.77212 30.8873C5.00956 32.0752 6.82804 32.75 9.26652 32.75H26.7332C29.1719 32.75 30.9865 32.0751 32.2219 30.8868C33.4523 29.7032 34.014 28.1007 34.1314 26.4273L34.9979 14.0389C35.2684 10.2825 31.9652 7.25 27.9999 7.25C27.2337 7.25 26.5604 6.8538 26.2362 6.296L25.0399 4.12768L25.0371 4.12272C24.5679 3.28728 23.7575 2.57696 22.8658 2.07847C21.9708 1.57816 20.9207 1.25 19.9165 1.25H16.0999C15.0884 1.25 14.0344 1.57751 13.1367 2.07807C12.2425 2.57668 11.4319 3.28713 10.9626 4.12271L9.76351 6.29604C9.43927 6.85382 8.76601 7.25 7.99985 7.25C4.03482 7.25 0.731794 10.2829 1.00179 14.0389ZM1.00179 14.0389C1.00181 14.0391 1.00177 14.0386 1.00179 14.0389ZM32.635 26.3227C32.5357 27.7392 32.0724 28.9493 31.182 29.8057C30.2966 30.6574 28.8945 31.25 26.7332 31.25H9.26652C7.105 31.25 5.69848 30.6573 4.81092 29.8052C3.91907 28.949 3.45645 27.7401 3.36496 26.3266L2.49803 13.9327L2.49792 13.9311C2.30177 11.2075 4.73183 8.75 7.99985 8.75C9.26454 8.75 10.4562 8.09882 11.0665 7.03947L12.2718 4.85494C12.5695 4.32629 13.1417 3.79272 13.8672 3.38818C14.5903 2.98499 15.3946 2.75 16.0999 2.75H19.9165C20.6123 2.75 21.4122 2.98434 22.1339 3.38778C22.8578 3.79245 23.4302 4.32616 23.728 4.85496C23.7284 4.85573 23.7288 4.85651 23.7293 4.85728L24.9264 7.02737L24.9333 7.03941C25.5436 8.09876 26.7352 8.75 27.9999 8.75C31.2679 8.75 33.6979 11.2075 33.5018 13.9311L33.5017 13.9327L32.635 26.3227ZM32.635 26.3227C32.635 26.3227 32.635 26.3226 32.635 26.3227Z" stroke="#EA5734" stroke-linecap="round" stroke-linejoin="round"/>
<path fill-rule="evenodd" clip-rule="evenodd" d="M14.75 11C14.75 10.5858 15.0858 10.25 15.5 10.25H20.5C20.9142 10.25 21.25 10.5858 21.25 11C21.25 11.4142 20.9142 11.75 20.5 11.75H15.5C15.0858 11.75 14.75 11.4142 14.75 11Z" fill="#EA5734" stroke="#EA5734" stroke-linecap="round" stroke-linejoin="round"/>
<path fill-rule="evenodd" clip-rule="evenodd" d="M11.833 21.125C11.833 17.9534 14.6784 15.5 17.9997 15.5C21.3209 15.5 24.1663 17.9534 24.1663 21.125C24.1663 24.2966 21.3209 26.75 17.9997 26.75C14.6784 26.75 11.833 24.2966 11.833 21.125ZM17.9997 17C15.3543 17 13.333 18.9266 13.333 21.125C13.333 23.3234 15.3543 25.25 17.9997 25.25C20.6451 25.25 22.6663 23.3234 22.6663 21.125C22.6663 18.9266 20.6451 17 17.9997 17Z" fill="#EA5734" stroke="#EA5734" stroke-linecap="round" stroke-linejoin="round"/>
</svg>
