<svg xmlns="http://www.w3.org/2000/svg" width="27.5" height="28" viewBox="0 0 27.5 28">
  <path id="Icon_awesome-check-circle" data-name="Icon awesome-check-circle" d="M28.063,14.563a13.877,13.877,0,0,1-13.75,14,13.877,13.877,0,0,1-13.75-14,13.877,13.877,0,0,1,13.75-14A13.877,13.877,0,0,1,28.063,14.563Zm-15.34,7.413,10.2-10.387a.915.915,0,0,0,0-1.277L21.669,9.034a.876.876,0,0,0-1.255,0L12.095,17.5,8.21,13.55a.876.876,0,0,0-1.255,0L5.7,14.827a.915.915,0,0,0,0,1.277l5.766,5.871a.876.876,0,0,0,1.255,0Z" transform="translate(-0.563 -0.563)" fill="#ea5734"/>
</svg>
