<svg xmlns="http://www.w3.org/2000/svg" width="25.723" height="21" viewBox="0 0 25.723 21">
  <path id="Icon_ionic-ios-share-alt" data-name="Icon ionic-ios-share-alt" d="M30,15.57l-9.45-8.663a.488.488,0,0,0-.375-.158c-.295.013-.67.217-.67.525V11.62a.282.282,0,0,1-.241.269c-9.4,1.411-13.354,8.3-14.754,15.456-.054.282.335.545.516.322,3.429-4.233,7.6-7,14.2-7.048a.327.327,0,0,1,.281.315V25.2a.577.577,0,0,0,.971.348l9.517-8.814a.717.717,0,0,0,.234-.551A.869.869,0,0,0,30,15.57Z" transform="translate(-4.502 -6.749)"/>
</svg>
