<svg width="32" height="32" viewBox="0 0 32 32" fill="none" xmlns="http://www.w3.org/2000/svg">
<path fill-rule="evenodd" clip-rule="evenodd" d="M2.74556 2.74556C4.73174 0.759369 7.70386 0 11.5349 0H20.4651C24.2961 0 27.2683 0.759369 29.2544 2.74556C31.2406 4.73174 32 7.70386 32 11.5349V20.4651C32 24.2961 31.2406 27.2683 29.2544 29.2544C27.2683 31.2406 24.2961 32 20.4651 32H11.5349C7.70386 32 4.73174 31.2406 2.74556 29.2544C0.759369 27.2683 0 24.2961 0 20.4651V11.5349C0 7.70386 0.759369 4.73174 2.74556 2.74556ZM4.32421 4.32421C2.96156 5.68686 2.23256 7.92405 2.23256 11.5349V20.4651C2.23256 24.0759 2.96156 26.3131 4.32421 27.6758C5.68686 29.0384 7.92405 29.7674 11.5349 29.7674H20.4651C24.0759 29.7674 26.3131 29.0384 27.6758 27.6758C29.0384 26.3131 29.7674 24.0759 29.7674 20.4651V11.5349C29.7674 7.92405 29.0384 5.68686 27.6758 4.32421C26.3131 2.96156 24.0759 2.23256 20.4651 2.23256H11.5349C7.92405 2.23256 5.68686 2.96156 4.32421 4.32421Z" fill="#EA5734"/>
<path fill-rule="evenodd" clip-rule="evenodd" d="M11 8.18182C9.99585 8.18182 9.18182 8.99585 9.18182 10C9.18182 11.0042 9.99585 11.8182 11 11.8182C12.0042 11.8182 12.8182 11.0042 12.8182 10C12.8182 8.99585 12.0042 8.18182 11 8.18182ZM7 10C7 7.79086 8.79086 6 11 6C13.2091 6 15 7.79086 15 10C15 12.2091 13.2091 14 11 14C8.79086 14 7 12.2091 7 10Z" fill="#EA5734"/>
<path fill-rule="evenodd" clip-rule="evenodd" d="M27.7307 17.5857C26.9882 16.9773 25.731 16.9773 24.9885 17.5857L18.7974 22.6541C18.7973 22.6542 18.7976 22.654 18.7974 22.6541C17.2183 23.9477 14.725 23.9479 13.146 22.6541L13.1365 22.6462L12.6507 22.2389C11.9833 21.6955 10.8428 21.6288 10.0751 22.1201L2.73846 26.8191C2.22667 27.1469 1.53322 27.0169 1.18961 26.5286C0.845988 26.0404 0.982321 25.3789 1.49411 25.0511L8.8311 20.3519C10.4132 19.3393 12.6631 19.4415 14.1096 20.627L14.1191 20.6348L14.6048 21.0421C15.3478 21.6471 16.6017 21.646 17.3428 21.0387L23.5339 15.9703C23.534 15.9702 23.5338 15.9704 23.5339 15.9703C25.113 14.6767 27.6063 14.6765 29.1852 15.9703C29.1853 15.9703 29.1852 15.9703 29.1852 15.9703L31.6111 17.9579C32.0787 18.341 32.1322 19.0133 31.7305 19.4594C31.3289 19.9055 30.6242 19.9565 30.1566 19.5733L27.7307 17.5857Z" fill="#EA5734"/>
</svg>
