<svg width="26" height="22" viewBox="0 0 26 22" fill="none" xmlns="http://www.w3.org/2000/svg">
<path d="M25.4951 8.82124L16.0451 0.158239C15.9976 0.106471 15.9396 0.0655551 15.8749 0.0382869C15.8101 0.0110188 15.7403 -0.00195914 15.6701 0.000239157C15.3751 0.0132392 15.0001 0.217239 15.0001 0.525239V4.87124C14.9977 4.93719 14.9723 5.00023 14.9283 5.04938C14.8843 5.09854 14.8244 5.13069 14.7591 5.14024C5.3591 6.55124 1.4051 13.4402 0.00509508 20.5962C-0.0489049 20.8782 0.340095 21.1412 0.521095 20.9182C3.95009 16.6852 8.1211 13.9182 14.7211 13.8702C14.7976 13.8811 14.8678 13.9187 14.9192 13.9763C14.9707 14.034 15 14.108 15.0021 14.1852V18.4512C15.015 18.5575 15.0572 18.658 15.124 18.7417C15.1907 18.8253 15.2795 18.8887 15.3802 18.9248C15.481 18.961 15.5898 18.9683 15.6945 18.9461C15.7992 18.924 15.8956 18.8731 15.9731 18.7992L25.4901 9.98524C25.5665 9.91568 25.627 9.83043 25.6673 9.73533C25.7077 9.64023 25.7271 9.53752 25.7241 9.43424C25.7305 9.20787 25.6484 8.98793 25.4951 8.82124Z" fill="#EA5734"/>
</svg>
