<svg xmlns="http://www.w3.org/2000/svg" width="51.625" height="59" viewBox="0 0 51.625 59">
  <path id="Icon_awesome-unlock" data-name="Icon awesome-unlock" d="M46.094,29.5H17.516V17.619a8.3,8.3,0,1,1,16.594-.1v1.844a2.759,2.759,0,0,0,2.766,2.766h3.687a2.759,2.759,0,0,0,2.766-2.766V17.516A17.516,17.516,0,1,0,8.3,17.688V29.5H5.531A5.533,5.533,0,0,0,0,35.031V53.469A5.533,5.533,0,0,0,5.531,59H46.094a5.533,5.533,0,0,0,5.531-5.531V35.031A5.533,5.533,0,0,0,46.094,29.5Z" transform="translate(0 0)" fill="#fff"/>
</svg>
