<svg xmlns="http://www.w3.org/2000/svg" width="51.625" height="59" viewBox="0 0 51.625 59">

    <path fill="#000000"
        d="m17.516,29.5l0,-11.881a8.3,8.3 0 1 1 16.594,-0.1l9.219,-0.003a17.516,17.516 0 1 0 -35.029,0.172l0,11.812l-2.769,0a5.533,5.533 0 0 0 -5.531,5.531l0,18.438a5.533,5.533 0 0 0 5.531,5.531l40.563,0a5.533,5.533 0 0 0 5.531,-5.531l0,-18.438a5.533,5.533 0 0 0 -5.531,-5.531l-28.578,0"
        id="Icon_awesome-unlock" />
    <rect id="svg_4" height="15.04424" width="9.20353" y="17.47786" x="34.13108" fill="#000" />
</svg>