<svg width="32" height="32" viewBox="0 0 32 32" fill="none" xmlns="http://www.w3.org/2000/svg">
<path d="M27.4418 15.1275L6.32747 3.30346C6.14984 3.20399 5.94608 3.1611 5.74342 3.18053C5.54077 3.19996 5.34887 3.28078 5.19338 3.4122C5.03788 3.54361 4.92621 3.71935 4.87327 3.91593C4.82033 4.11252 4.82865 4.32057 4.89713 4.5123L8.87976 15.6637C8.95744 15.8812 8.95744 16.1189 8.87976 16.3363L4.89713 27.4877C4.82865 27.6794 4.82033 27.8875 4.87327 28.0841C4.92621 28.2807 5.03788 28.4564 5.19338 28.5878C5.34887 28.7192 5.54077 28.8001 5.74342 28.8195C5.94608 28.8389 6.14984 28.796 6.32747 28.6966L27.4418 16.8725C27.5969 16.7857 27.7261 16.659 27.816 16.5057C27.9058 16.3523 27.9532 16.1778 27.9532 16C27.9532 15.8222 27.9058 15.6477 27.816 15.4943C27.7261 15.341 27.5969 15.2144 27.4418 15.1275V15.1275Z" stroke="#EA5734" stroke-width="2" stroke-linecap="round" stroke-linejoin="round"/>
<path d="M9 16H17" stroke="#EA5734" stroke-width="2" stroke-linecap="round" stroke-linejoin="round"/>
</svg>
