<?xml version="1.0" standalone="no"?>
<!DOCTYPE svg PUBLIC "-//W3C//DTD SVG 20010904//EN"
 "http://www.w3.org/TR/2001/REC-SVG-20010904/DTD/svg10.dtd">
<svg version="1.0" xmlns="http://www.w3.org/2000/svg"
 width="96.000000pt" height="96.000000pt" viewBox="0 0 96.000000 96.000000"
 preserveAspectRatio="xMidYMid meet">
<metadata>
Created by potrace 1.16, written by Peter Selinger 2001-2019
</metadata>
<g transform="translate(0.000000,96.000000) scale(0.100000,-0.100000)"
fill="#000000" stroke="none">
<path d="M98 859 c-40 -23 -9 -208 57 -343 123 -252 393 -436 641 -436 66 0
72 2 78 22 8 33 7 211 -2 225 -4 7 -44 20 -87 29 -147 30 -132 31 -184 -20
l-46 -46 -35 21 c-62 38 -128 99 -175 161 l-45 60 46 51 c51 57 50 52 19 182
-26 106 -17 100 -141 102 -62 2 -117 -2 -126 -8z"/>
</g>
</svg>
