<svg xmlns="http://www.w3.org/2000/svg" width="17.945" height="21.596" viewBox="0 0 17.945 21.596">
  <path id="Icon_awesome-phone-alt" data-name="Icon awesome-phone-alt" d="M17.433,15.261l-3.926-2.025a.753.753,0,0,0-.981.291l-1.738,2.556A14.593,14.593,0,0,1,4.578,8.61L6.7,6.518a1.149,1.149,0,0,0,.242-1.181L5.261.612A.82.82,0,0,0,4.3.026L.652,1.038A.991.991,0,0,0,0,2.025C0,12.844,7.287,21.6,16.263,21.6a.891.891,0,0,0,.82-.785l.841-4.387a1.088,1.088,0,0,0-.491-1.164Z" transform="translate(0 0)"/>
</svg>
