<svg xmlns="http://www.w3.org/2000/svg" width="47.95" height="47.25" viewBox="0 0 47.95 47.25">
  <path id="Icon_ionic-md-refresh-circle" data-name="Icon ionic-md-refresh-circle" d="M27.35,3.375A23.872,23.872,0,0,0,3.375,27a23.978,23.978,0,0,0,47.95,0A23.872,23.872,0,0,0,27.35,3.375ZM40.26,25.41c-1.239,1.144-11.3,0-11.3,0l5.164-5.088a9.444,9.444,0,0,0-6.778-2.862,9.542,9.542,0,1,0,0,19.082c4.023,0,8.035-4.472,8.945-5.906s3.109-1.974,3.458,0-6.513,9.087-12.4,9.087a12.723,12.723,0,1,1,0-25.442,12.966,12.966,0,0,1,9.117,3.737l3.792-3.737S41.5,24.266,40.26,25.41Z" transform="translate(-3.375 -3.375)" fill="#ea5734"/>
</svg>
