<svg width="33" height="33" viewBox="0 0 33 33" fill="none" xmlns="http://www.w3.org/2000/svg">
<path d="M28.0688 15.7549L6.95442 3.9309C6.77679 3.83143 6.57303 3.78854 6.37038 3.80797C6.16772 3.8274 5.97582 3.90823 5.82033 4.03964C5.66484 4.17105 5.55316 4.34679 5.50022 4.54338C5.44728 4.73996 5.45561 4.94802 5.52408 5.13974L9.50671 16.2911C9.58439 16.5086 9.58439 16.7463 9.50671 16.9638L5.52408 28.1152C5.45561 28.3069 5.44728 28.5149 5.50022 28.7115C5.55316 28.9081 5.66484 29.0838 5.82033 29.2153C5.97582 29.3467 6.16772 29.4275 6.37038 29.4469C6.57303 29.4664 6.77679 29.4235 6.95442 29.324L28.0688 17.5C28.2239 17.4131 28.353 17.2865 28.4429 17.1331C28.5328 16.9798 28.5802 16.8052 28.5802 16.6274C28.5802 16.4497 28.5328 16.2751 28.4429 16.1218C28.353 15.9684 28.2239 15.8418 28.0688 15.7549V15.7549Z" stroke="#EA5734" stroke-width="2" stroke-linecap="round" stroke-linejoin="round"/>
<path d="M9.62695 16.6274H17.627" stroke="#EA5734" stroke-width="2" stroke-linecap="round" stroke-linejoin="round"/>
</svg>
