<svg width="28" height="28" viewBox="0 0 28 28" fill="none" xmlns="http://www.w3.org/2000/svg">
<path fill-rule="evenodd" clip-rule="evenodd" d="M14 28C21.732 28 28 21.732 28 14C28 6.26801 21.732 0 14 0C6.26801 0 0 6.26801 0 14C0 21.732 6.26801 28 14 28ZM7.06917 20.8775C7.22672 21.0502 7.44957 21.1488 7.68333 21.1492C7.7075 21.1492 7.73333 21.1483 7.75917 21.1458L10.0042 20.9417L19.4333 11.5142L16.4858 8.5675L7.05417 17.9958L6.85 20.2408C6.82897 20.4746 6.90871 20.7062 7.06917 20.8775ZM17.075 7.97833L20.0217 10.925L21.7892 9.1575C21.9456 9.00119 22.0336 8.78909 22.0336 8.56792C22.0336 8.34674 21.9456 8.13464 21.7892 7.97833L20.0217 6.21083C19.8654 6.05435 19.6533 5.96643 19.4321 5.96643C19.2109 5.96643 18.9988 6.05435 18.8425 6.21083L17.075 7.97833Z" fill="#FF0000"/>
</svg>
