<svg width="33" height="32" viewBox="0 0 33 32" fill="none" xmlns="http://www.w3.org/2000/svg">
<path d="M11.3188 20C15.0127 20 18.0072 17.0899 18.0072 13.5C18.0072 9.91015 15.0127 7 11.3188 7C7.62487 7 4.63037 9.91015 4.63037 13.5C4.63037 17.0899 7.62487 20 11.3188 20Z" stroke="#EA5734" stroke-width="2" stroke-miterlimit="10"/>
<path d="M19.9897 7.24215C20.9097 6.99026 21.8745 6.93287 22.8192 7.07386C23.7638 7.21486 24.6665 7.55095 25.4662 8.0595C26.266 8.56805 26.9444 9.23726 27.4556 10.022C27.9668 10.8068 28.2991 11.689 28.4299 12.6091C28.5608 13.5291 28.4873 14.4658 28.2143 15.3559C27.9414 16.2461 27.4753 17.069 26.8475 17.7694C26.2197 18.4697 25.4447 19.0312 24.5748 19.416C23.705 19.8008 22.7603 19.9999 21.8046 20" stroke="#EA5734" stroke-width="2" stroke-linecap="round" stroke-linejoin="round"/>
<path d="M2.05762 24.6746C3.10221 23.2306 4.48897 22.052 6.10082 21.2384C7.71267 20.4248 9.50229 20.0001 11.3186 20C13.1349 19.9999 14.9245 20.4246 16.5365 21.238C18.1484 22.0515 19.5352 23.23 20.5799 24.6739" stroke="#EA5734" stroke-width="2" stroke-linecap="round" stroke-linejoin="round"/>
<path d="M21.8047 20C23.6212 19.9987 25.4112 20.4228 27.0232 21.2364C28.6353 22.05 30.0219 23.2291 31.0656 24.6739" stroke="#EA5734" stroke-width="2" stroke-linecap="round" stroke-linejoin="round"/>
</svg>
