<svg width="26" height="41" viewBox="0 0 26 41" fill="none" xmlns="http://www.w3.org/2000/svg">
<path d="M16.2503 9.06756V8.02756C16.2503 4.79922 14.0078 3.56422 11.2778 5.27589L8.11449 7.25839C7.76783 7.46422 7.36699 7.58339 6.96616 7.58339H5.41699C3.25033 7.58339 2.16699 8.66672 2.16699 10.8334V15.1667C2.16699 17.3334 3.25033 18.4167 5.41699 18.4167H7.58366" stroke="#292D32" stroke-width="1.5" stroke-linecap="round" stroke-linejoin="round"/>
<path d="M11.2773 20.7241C14.0073 22.4358 16.2498 21.19 16.2498 17.9724V14.0291" stroke="#292D32" stroke-width="1.5" stroke-linecap="round" stroke-linejoin="round"/>
<path d="M20.3775 10.205C21.3525 12.5342 21.06 15.2534 19.5 17.3333" stroke="#292D32" stroke-width="1.5" stroke-linecap="round" stroke-linejoin="round"/>
<path d="M22.9124 8.45001C24.5049 12.2308 24.0283 16.6508 21.4824 20.0417" stroke="#292D32" stroke-width="1.5" stroke-linecap="round" stroke-linejoin="round"/>
<path d="M23.8337 2.16669L2.16699 23.8334" stroke="#292D32" stroke-width="1.5" stroke-linecap="round" stroke-linejoin="round"/>
<path d="M17.8154 28.3291H16.5459V30.27H17.8154V37.875C17.8154 38.876 18.1084 39.641 18.6943 40.1699C19.264 40.7233 19.9964 41 20.8916 41H22.2222V38.5952H21.27C20.6515 38.6115 20.3504 38.2982 20.3667 37.6553V30.27H22.2222V28.3291H20.3667V24.4717H17.8154V28.3291Z" fill="white"/>
</svg>
